inDegrees=no
num_controls=7
num_derivatives=13
num_iterations=177
num_multipliers=7
num_parameters=0
num_slacks=7
num_states=26
objective=0.477028
objective_accelerations=0.044194
objective_balance=0.003596
objective_effort=0.040297
objective_height=0.383277
objective_ligament=0.005663
solver_duration=2415.410071
status=Solve_Succeeded
success=true
DataType=double
version=3
OpenSimVersion=4.5
endheader
time	/jointset/ground_pelvis/pelvis_tilt/value	/jointset/ground_pelvis/pelvis_tx/value	/jointset/ground_pelvis/pelvis_ty/value	/jointset/hip_l/hip_flexion_l/value	/jointset/hip_l/hip_adduction_l/value	/jointset/hip_l/hip_rotation_l/value	/jointset/back/lumbar_extension/value	/jointset/patellofemoral_l/patellar_flexion_l/value	/jointset/knee_l/knee_flexion_l/value	/jointset/knee_l/knee_adduction_l/value	/jointset/knee_l/knee_rotation_l/value	/jointset/ankle_l/ankle_angle_l/value	/jointset/subtalar_l/subtalar_angle_l/value	/jointset/ground_pelvis/pelvis_tilt/speed	/jointset/ground_pelvis/pelvis_tx/speed	/jointset/ground_pelvis/pelvis_ty/speed	/jointset/hip_l/hip_flexion_l/speed	/jointset/hip_l/hip_adduction_l/speed	/jointset/hip_l/hip_rotation_l/speed	/jointset/back/lumbar_extension/speed	/jointset/patellofemoral_l/patellar_flexion_l/speed	/jointset/knee_l/knee_flexion_l/speed	/jointset/knee_l/knee_adduction_l/speed	/jointset/knee_l/knee_rotation_l/speed	/jointset/ankle_l/ankle_angle_l/speed	/jointset/subtalar_l/subtalar_angle_l/speed	/forceset/tau_hip_flexion_l	/forceset/tau_hip_adduction_l	/forceset/tau_hip_rotation_l	/forceset/tau_knee_flexion_l	/forceset/tau_ankle_angle_l	/forceset/tau_subtalar_angle_l	/forceset/tau_lumbar_extension	lambda_cid13_p0	lambda_cid13_p1	lambda_cid13_p2	lambda_cid13_p3	lambda_cid13_p4	lambda_cid13_p5	lambda_cid14_p0	/jointset/ground_pelvis/pelvis_tilt/accel	/jointset/ground_pelvis/pelvis_tx/accel	/jointset/ground_pelvis/pelvis_ty/accel	/jointset/hip_l/hip_flexion_l/accel	/jointset/hip_l/hip_adduction_l/accel	/jointset/hip_l/hip_rotation_l/accel	/jointset/back/lumbar_extension/accel	/jointset/patellofemoral_l/patellar_flexion_l/accel	/jointset/knee_l/knee_flexion_l/accel	/jointset/knee_l/knee_adduction_l/accel	/jointset/knee_l/knee_rotation_l/accel	/jointset/ankle_l/ankle_angle_l/accel	/jointset/subtalar_l/subtalar_angle_l/accel	gamma_cid13_p0	gamma_cid13_p1	gamma_cid13_p2	gamma_cid13_p3	gamma_cid13_p4	gamma_cid13_p5	gamma_cid14_p0
0.5	-0.09248117110552481	-0.04105454687468688	0.8071411463743059	0.9271299656375521	-0.3297799685126889	-0.07869580664285762	-0.790740620280262	0.9213376993136866	0.9213376993137122	-0.1034682421350812	-0.1744849057792806	0.1508340668304922	0.01386888588323792	-0.1215801828925043	-0.1552643698302389	-0.4141707337276059	1.585033907456063	-0.03034855134151692	0.5631853414624568	-0.837070721705943	1.780582684980681	1.780582684980722	0.1494102257055351	0.0002258919534721481	0.4385602726523286	0.1167287968324334	-0.2697318441387988	0.0168311298807059	-0.004734350266541468	-0.2492854987973062	0.08485484129386425	0.0489225216689149	0.3270075892029336	-16.71321515585682	-20.11057363747663	4.796347686536869	-9.623177184879202	-701.8299841635077	-78.81893516391155	-9.752082431908077	0.2797990681554203	0.676234093400498	-0.1894931896200642	-1.51948405044796	0.3284798712399317	-0.5126323437765585	1.908066237196967	-1.423922310007848	-1.423922310007846	-0.2192472138720764	-0.004139676579638474	-0.2539673059180044	0.3429031527754019	-2.541854035359829e-07	-1.611908273880498e-07	1.519247336314587e-06	1.415579124981246e-07	-2.811329897887586e-07	-1.051081572769841e-07	-2.163507181271078e-07
0.51	-0.09368281184818804	-0.04257335841284755	0.8029908916812701	0.942901943772983	-0.3300678589853104	-0.0730887180994567	-0.799015034429763	0.9390695370526778	0.9390695370526841	-0.101987655041889	-0.1744827477944843	0.155205907196454	0.01505202633587617	-0.1187295453371126	-0.1484971332816443	-0.415784988962196	1.569141966957189	-0.02723782015817744	0.5581649017359115	-0.8177235000485142	1.765529892618027	1.765529892618075	0.1467041213556843	0.0002036767170565018	0.4357359272885265	0.1198708603023405	-0.2759231936884102	0.01715068815430592	-0.004873879291493664	-0.2529022675932949	0.08369146652353213	0.0489949874044169	0.3332470182790171	-17.34713305817678	-19.97876358970618	4.715607976942381	-9.375324513999505	-706.3894630252298	-78.67798993978536	-9.02950221559855	0.2904356632214476	0.6771175841655663	-0.1331635824725363	-1.657043041198584	0.3009218869779188	-0.5070675608054384	1.961341351877018	-1.584160936447202	-1.584160936446111	-0.2967470334170108	-0.001270408341680121	-0.3074471575040508	0.2954379445864694	-2.445127577481454e-07	-1.540701159012524e-07	1.480955222926046e-06	1.372163256829566e-07	-2.669611881991397e-07	-7.555578131559625e-08	-2.115368679666887e-07
0.52	-0.09485539830249924	-0.04402446775580693	0.7988273400574697	0.9585084037051069	-0.3303249317170791	-0.06753389750806298	-0.8070933181183172	0.9566432062206323	0.9566432062206185	-0.1005342199897705	-0.1744808135542852	0.1595473483075992	0.01626570342331114	-0.1157693252221056	-0.1417239307899763	-0.4168301198805486	1.551930266794658	-0.02418500317095956	0.5527317510608897	-0.797844629516639	1.748948970773253	1.748948970773308	0.1439798174908171	0.000181143033875472	0.4324804216890146	0.1228361237917724	-0.2821145432380205	0.0174702464279077	-0.005013408316448537	-0.2565190363892834	0.08252809175320028	0.0490674531399211	0.3394864473551013	-17.98288752860345	-19.84694519377792	4.635226108110492	-9.172903385593862	-711.0105975154784	-78.58927801046009	-8.308987408944501	0.3017155800785049	0.6774272820151792	-0.07566832637253056	-1.783435983179181	0.3168970320156104	-0.5951745334718652	2.014396012086253	-1.729548206431831	-1.729548206431835	-0.2228871168753486	-0.004203365932723584	-0.3401993530599569	0.3075431566803599	-2.393280959361334e-07	-1.95837983617509e-07	1.433378586101817e-06	1.268386049200006e-07	-2.579960750647577e-07	-6.195603349534057e-08	-2.116832531928745e-07
0.53	-0.0959978597558436	-0.04540787267386577	0.7946561946661422	0.9739362820307607	-0.3305518164121202	-0.06203556068310243	-0.8149703601444556	0.9740436006047111	0.9740436006047131	-0.09910805480403516	-0.1744792868936404	0.1638541477875167	0.01750809751034007	-0.1127071056483752	-0.1349614278238634	-0.4173028363021484	1.533437053566401	-0.02120406177311339	0.5468760835600566	-0.777494373820497	1.730889946203164	1.730889946203187	0.1412469202592824	0.0001243775851050766	0.4288146373437096	0.1256110252228486	-0.2879615940350608	0.01763530795526088	-0.005107308700501583	-0.2603038906328267	0.08148061647912599	0.04900478515264733	0.3453882905957146	-18.58068748929052	-19.65531759643586	4.536436850881791	-8.907641507653562	-715.4866973684213	-78.43435689753565	-7.595572368632568	0.3108320690969698	0.675029831118821	-0.01870564506117536	-1.913544641963066	0.2866889402108274	-0.5898880061027966	2.055750631963104	-1.880031206171349	-1.880031206176227	-0.2994525810351111	-0.006106182358640567	-0.389495527766553	0.2575830430671403	-2.297780462766298e-07	-1.960665881202268e-07	1.389049716832209e-06	1.213562293291263e-07	-2.452838966952533e-07	-3.686483711200997e-08	-2.069058080773749e-07
0.54	-0.09710922762883532	-0.04672377895682155	0.7904831956415972	0.9891729720942694	-0.3307492924438745	-0.05659760556269236	-0.8226418175569155	0.9912562144183144	0.9912562144183312	-0.09770941090156335	-0.1744782664970845	0.168122343913481	0.01877726449302895	-0.1095506091515798	-0.1282242037693629	-0.4172008465240475	1.513692614365582	-0.01830327051359881	0.540655410150673	-0.756727706780959	1.711392856678115	1.711392856678105	0.138475560838045	7.989021595782798e-05	0.4247597508983736	0.1281907029237607	-0.2938086448320997	0.01780036948261546	-0.005201209084553781	-0.2640887448763699	0.08043314120505175	0.04894211716537523	0.3512901338363291	-19.18005321163692	-19.4664758753329	4.441588259721287	-8.69205693484926	-720.0156570492983	-78.33456873562652	-6.912527975091735	0.3205709646914962	0.6723714996926746	0.03927291356761096	-2.033681177691532	0.3008670043492918	-0.6681757151819755	2.097678280765458	-2.017161197424083	-2.017161197424071	-0.2305795548158793	-0.001747750008099485	-0.4180197730661515	0.268498410647533	-2.153982058071354e-07	-1.503368588547737e-07	1.348314122303885e-06	1.21289980311619e-07	-2.284260291294433e-07	9.403023623823645e-10	-1.966807208817124e-07
